<svg xmlns="http://www.w3.org/2000/svg" viewBox="0 0 97.13 78.51"><defs><style>.cls-1{fill:none;}.cls-1,.cls-2{stroke:#231f20;stroke-linecap:round;stroke-linejoin:round;stroke-width:2px;}.cls-2{fill:#fff;}</style></defs><g id="Layer_2" data-name="Layer 2"><g id="Layer_2-2" data-name="Layer 2"><path class="cls-1" d="M75.59,1h-54A6.57,6.57,0,0,0,15,7.58V23.52H82.16V7.58A6.57,6.57,0,0,0,75.59,1Z"/><polygon class="cls-1" points="82.16 23.52 48.57 23.52 14.97 23.52 1 52.15 48.57 52.15 96.13 52.15 82.16 23.52"/><rect class="cls-1" x="1" y="52.15" width="95.13" height="20.35"/><path class="cls-2" d="M21.56,19.73l-1.23,10a54.35,54.35,0,0,0,25.43,0v-10A30.42,30.42,0,0,0,21.56,19.73Z"/><path class="cls-2" d="M75.57,19.73l1.23,10a54.3,54.3,0,0,1-25.42,0v-10A30.4,30.4,0,0,1,75.57,19.73Z"/><rect class="cls-1" x="6.38" y="72.5" width="9.45" height="5.02"/><rect class="cls-1" x="81.31" y="72.5" width="9.45" height="5.02" transform="translate(172.06 150.01) rotate(180)"/></g></g></svg>