<svg xmlns="http://www.w3.org/2000/svg" viewBox="0 0 72.97 73.46"><defs><style>.cls-1{fill:none;stroke:#231f20;stroke-linecap:round;stroke-linejoin:round;stroke-width:2px;}</style></defs><g id="Layer_2" data-name="Layer 2"><g id="Layer_2-2" data-name="Layer 2"><rect class="cls-1" x="1" y="1" width="70.97" height="59.99"/><line class="cls-1" x1="9.17" y1="60.99" x2="5.51" y2="72.46"/><line class="cls-1" x1="63.8" y1="60.99" x2="67.46" y2="72.46"/><line class="cls-1" x1="1" y1="21.97" x2="71.97" y2="21.97"/><line class="cls-1" x1="1" y1="41.48" x2="71.97" y2="41.48"/><path class="cls-1" d="M39.05,8.44a2.57,2.57,0,1,1-2.57-2.56A2.57,2.57,0,0,1,39.05,8.44Z"/><path class="cls-1" d="M39.05,29.84a2.57,2.57,0,1,1-2.57-2.56A2.57,2.57,0,0,1,39.05,29.84Z"/><path class="cls-1" d="M39.05,49.5a2.57,2.57,0,1,1-2.57-2.56A2.56,2.56,0,0,1,39.05,49.5Z"/></g></g></svg>