<svg xmlns="http://www.w3.org/2000/svg" viewBox="0 0 66.61 90.96"><defs><style>.cls-1{fill:none;stroke:#231f20;stroke-linecap:round;stroke-linejoin:round;stroke-width:2px;}</style></defs><g id="Layer_2" data-name="Layer 2"><g id="Layer_2-2" data-name="Layer 2"><path class="cls-1" d="M49.4,5.48A4.72,4.72,0,0,0,44.69,1H21.92a4.72,4.72,0,0,0-4.71,4.48L15,48.57H51.58Z"/><path class="cls-1" d="M7.94,48.57v3a6.33,6.33,0,0,0,6.33,6.33H52.34a6.32,6.32,0,0,0,6.32-6.33v-3Z"/><path class="cls-1" d="M1,34.75H5.1A2.84,2.84,0,0,1,7.94,37.6v11"/><path class="cls-1" d="M65.61,34.75h-4.1a2.85,2.85,0,0,0-2.85,2.85v11"/><line class="cls-1" x1="33.3" y1="57.93" x2="33.3" y2="84.87"/><path class="cls-1" d="M16.81,84.87V82.64a3.85,3.85,0,0,1,3.85-3.85H33.3"/><path class="cls-1" d="M49.8,84.87V82.64A3.85,3.85,0,0,0,46,78.79H33.3"/><path class="cls-1" d="M35.52,87.75a2.22,2.22,0,1,1-2.22-2.22A2.21,2.21,0,0,1,35.52,87.75Z"/><path class="cls-1" d="M19,87.75a2.22,2.22,0,1,1-2.22-2.22A2.22,2.22,0,0,1,19,87.75Z"/><path class="cls-1" d="M52,87.75a2.22,2.22,0,1,1-2.22-2.22A2.22,2.22,0,0,1,52,87.75Z"/><path class="cls-1" d="M33.3,61.88h7.9A3.83,3.83,0,0,1,45,65.71v.54"/></g></g></svg>