<svg xmlns="http://www.w3.org/2000/svg" viewBox="0 0 85.45 90.53"><defs><style>.cls-1{fill:none;stroke:#231f20;stroke-linecap:round;stroke-linejoin:round;stroke-width:2px;}</style></defs><g id="Layer_2" data-name="Layer 2"><g id="Layer_2-2" data-name="Layer 2"><path class="cls-1" d="M75.28,1H10.17A9.18,9.18,0,0,0,1,10.17V89.53H84.45V10.17A9.17,9.17,0,0,0,75.28,1Z"/><line class="cls-1" x1="1" y1="33.11" x2="84.45" y2="33.11"/><line class="cls-1" x1="42.73" y1="33.11" x2="42.73" y2="89.53"/><line class="cls-1" x1="47.66" y1="56.62" x2="47.66" y2="62.81"/><line class="cls-1" x1="1" y1="54.99" x2="42.73" y2="54.99"/><line class="cls-1" x1="18.49" y1="60.36" x2="25.24" y2="60.36"/><line class="cls-1" x1="18.49" y1="77.41" x2="25.24" y2="77.41"/><line class="cls-1" x1="1" y1="72.2" x2="42.73" y2="72.2"/><rect class="cls-1" x="38.16" y="37.56" width="4.57" height="17.43"/><rect class="cls-1" x="33.59" y="37.56" width="4.57" height="17.43"/><rect class="cls-1" x="29.03" y="37.56" width="4.57" height="17.43"/><rect class="cls-1" x="24.46" y="37.56" width="4.57" height="17.43"/><rect class="cls-1" x="9.14" y="43.99" width="17.43" height="4.57" transform="translate(-31.14 38.55) rotate(-59.94)"/><rect class="cls-1" x="12.86" y="7.26" width="24.76" height="20.42"/><line class="cls-1" x1="16.62" y1="27.68" x2="14" y2="33.11"/><line class="cls-1" x1="33.86" y1="27.68" x2="36.48" y2="33.11"/><path class="cls-1" d="M75.84,25.34c-.64-4.4-3-11.57-1.35-16.7H66.75c1.69,5.13-.71,12.3-1.35,16.7a14.54,14.54,0,0,0,1,7.77h8.48A14.54,14.54,0,0,0,75.84,25.34Z"/><path class="cls-1" d="M58.26,25.34c-.64-4.4-3-11.57-1.35-16.7H49.17c1.69,5.13-.71,12.3-1.36,16.7a14.59,14.59,0,0,0,1,7.77h8.48A14.54,14.54,0,0,0,58.26,25.34Z"/></g></g></svg>