<svg xmlns="http://www.w3.org/2000/svg" viewBox="0 0 104.44 74.33"><defs><style>.cls-1{fill:none;stroke:#231f20;stroke-linecap:round;stroke-linejoin:round;stroke-width:2px;}</style></defs><g id="Layer_2" data-name="Layer 2"><g id="Layer_2-2" data-name="Layer 2"><path class="cls-1" d="M90.47,30.74v15H14v-15a6.49,6.49,0,0,0-6.49-6.48h0A6.48,6.48,0,0,0,1,30.74V59.15H103.44V30.74A6.48,6.48,0,0,0,97,24.26h0A6.48,6.48,0,0,0,90.47,30.74Z"/><rect class="cls-1" x="13.97" y="35.53" width="76.51" height="10.23"/><path class="cls-1" d="M4.89,24.26v-18A5.25,5.25,0,0,1,10.14,1H94.3a5.25,5.25,0,0,1,5.25,5.25v18"/><line class="cls-1" x1="10.89" y1="59.15" x2="4.89" y2="73.33"/><line class="cls-1" x1="93.55" y1="59.15" x2="99.55" y2="73.33"/><rect class="cls-1" x="23.38" y="23.32" width="19.87" height="12.22"/><rect class="cls-1" x="61.19" y="23.32" width="19.87" height="12.22" transform="translate(142.25 58.85) rotate(180)"/><line class="cls-1" x1="52.22" y1="1" x2="52.22" y2="35.53"/></g></g></svg>